# xmcd CD database file
# Copyright (C) 1993-1998 Ti Kan
# 
# Track frame offsets:
#     182
#     22787
#     34627
#     50550
#     76742
#     95882
#     110042
#     128410
#     149030
#     163217
# 
# Disc length: 2273 seconds
# 
# Revision: 1
# Processed by: cddbd v1.4b41PL1 Copyright (c) Steve Scherf et al.
# Submitted via: DiscPlay 4.0.4
# 
DISCID=8208df0a
DTITLE=Muddy Waters - Collaboration--Muddy Waters and Otis Spann
DYEAR=1900
DGENRE=
TTITLE0=Long Distance Call
TTITLE1=Baby Please Don't Go
TTITLE2=I'm Your Hoochie Coochie Man
TTITLE3=Blues Before Sunrise
TTITLE4=Rolling Stone
TTITLE5=I Can't Be Satisfied
TTITLE6=Blow Wind Blow
TTITLE7=I Feel Like Going Home
TTITLE8=Walking Through the Park
TTITLE9=Lovin' Stuff (encore)
EXTD=
EXTT0=
EXTT1=
EXTT2=
EXTT3=
EXTT4=
EXTT5=
EXTT6=
EXTT7=
EXTT8=
EXTT9=
PLAYORDER=
